<svg xmlns="http://www.w3.org/2000/svg" viewBox="0 0 24 24">
  <rect width="24" height="24" rx="6" fill="#000"/>
  <path d="M15.144 7.314c-.247-.057-.43-.094-.43-.094v4.256c0 1.053-.853 1.906-1.905 1.906-1.052 0-1.905-.853-1.905-1.906 0-1.051.853-1.904 1.905-1.904.11 0 .218.01.323.028v-2.86c-.122-.02-.246-.032-.37-.032-2.238 0-4.054 1.816-4.054 4.054 0 2.237 1.816 4.054 4.054 4.054 2.237 0 4.054-1.816 4.054-4.054v-4.902s-.178.01-.34.003zm-4.986 7.947c-.414 0-.75-.336-.75-.75s.336-.75.75-.75.75.336.75.75-.336.75-.75.75z" fill="#fff"/>
</svg>