<svg xmlns="http://www.w3.org/2000/svg" viewBox="0 0 24 24">
  <rect width="24" height="24" rx="6" fill="#25D366"/>
  <path d="M17.472 14.382c-.297-.149-1.758-.867-2.029-.967-.272-.099-.47-.148-.67.15-.198.297-.767.967-.941 1.167-.173.198-.346.223-.644.075-.297-.149-1.255-.462-2.39-1.48-.883-.788-1.48-1.761-1.654-2.059-.173-.297-.018-.458.13-.606.134-.133.297-.346.446-.519.149-.173.198-.297.298-.495.099-.198.05-.371-.025-.52-.074-.148-.67-1.611-.918-2.209-.242-.579-.487-.5-.67-.51l-.571-.01c-.198 0-.52.074-.792.371s-1.04 1.016-1.04 2.479 1.064 2.876 1.213 3.074c.149.198 2.096 3.2 5.076 4.487.709.306 1.262.489 1.694.626.712.225 1.36.193 1.872.117.572-.085 1.758-.719 2.006-1.413.248-.695.248-1.29.173-1.414-.074-.124-.272-.198-.57-.347z" fill="#fff"/>
</svg>